<?xml version="1.0" encoding="UTF-8"?>
<svg id="Capa_1" data-name="Capa 1" xmlns="http://www.w3.org/2000/svg" viewBox="0 0 725.94 511.35">
  <defs>
    <style>
      .cls-1, .cls-2, .cls-3, .cls-4, .cls-5, .cls-6, .cls-7, .cls-8 {
        stroke-width: 0px;
      }

      .cls-2 {
        fill: #f39200;
      }

      .cls-3 {
        fill: #009fe3;
      }

      .cls-4 {
        fill: #fff;
      }

      .cls-5 {
        fill: #d2151a;
      }

      .cls-6 {
        fill: #e6007e;
      }

      .cls-7 {
        fill: #1d1d1b;
      }

      .cls-8 {
        fill: #f9b233;
      }
    </style>
  </defs>
  <path class="cls-3" d="m401.76,279.69l-32.82,186.1c-102.78-18.12-171.41-116.14-153.29-218.92,15.95-90.45,94.26-156.16,186.1-156.16v188.98h.01Z"/>
  <path class="cls-8" d="m402.31,277.85l176.67-34.34c18.97,97.57-44.76,192.05-142.33,211.01-23.42,4.55-42.1,4.71-65.59.57l31.25-177.24h0Z"/>
  <path class="cls-6" d="m401.76,278.26V114.64c79.52,0,145.44,54.34,160.61,132.4l-160.61,31.22h0Z"/>
  <circle class="cls-4" cx="397.54" cy="278.26" r="66.31"/>
  <path class="cls-1" d="m462.21,397.26c1.08-4.64,2.17-9.27,3.25-13.91.06-.24.1-.48.19-.89-1.03-.14-1.96-.27-2.98-.42-2.4-11.76-2.42-23.55-.76-35.62h20.28c1.89,0,2.88-1.35,2.25-3.15-3.26-9.36-6.54-18.72-9.83-28.07-.16-.45-.43-.98-.8-1.21-2.08-1.28-2.2-1.77-.74-3.6h1.55c.99.81,1.54,1.7.7,2.99-.19.29-.13.85,0,1.22,3.58,9.58,7.19,19.16,10.75,28.6,1.5.28,2.85.53,4.46.83,4.31-4.78,8.8-9.76,13.29-14.75,1.9-2.11,3.81-4.22,5.7-6.34.74-.83,1.69-1.47,1.26-2.95-.12-.39.97-1.48,1.65-1.65.46-.11,1.63.79,1.68,1.31.06.66-.68,2-1.09,2-1.57.01-2.21,1.1-3.01,2.03-5.93,6.91-11.85,13.83-17.77,20.75-.39.46-.72.96-1.38,1.86h22.7c1.57,12.08,1.58,23.87-.74,35.74-.87.12-1.8.24-2.99.4,1.32,4.77,2.61,9.45,3.91,14.13-.13.16-.26.32-.4.47-.6-.42-1.41-.71-1.76-1.28-2.21-3.63-4.32-7.33-6.47-11-.35-.6-.74-1.17-1.5-1.71v6.68c-.18.07-.36.13-.54.2-.47-.6-1.12-1.14-1.38-1.82-1.63-4.21-4.54-5.34-8.99-4.92-4.98.48-10.06.02-15.1-.12-1.03-.03-1.5.27-1.87,1.18-.69,1.67-1.48,3.29-2.26,4.91-.26.54-.62,1.03-.93,1.54-.19-.04-.38-.07-.57-.11v-7.48c-.19-.04-.38-.09-.57-.13-2.82,4.76-5.64,9.51-8.45,14.27h-.78l.04.02Zm22.18-46.25h-14.93c-2.4,0-2.93.54-2.93,2.99,0,7.43-.01,14.86,0,22.29,0,2.28.6,2.91,2.86,2.92,9.95.02,19.9.02,29.86,0,2.32,0,2.89-.59,2.9-2.86.01-7.49.01-14.99,0-22.48,0-2.36-.5-2.86-2.83-2.86-4.98-.01-9.95,0-14.93,0h0Z"/>
  <g>
    <path class="cls-1" d="m456.67,206.62c-.79.3-1.61.54-2.35.93-1.01.53-1.52.47-2.19-.46-1.59-2.2-3.18-4.39-4.76-6.59-1.22-1.69-1-2.99.69-4.21,13.01-9.4,26.02-18.8,39.04-28.2,2.48-1.79,4.97-3.59,7.46-5.37,1.37-.98,2.81-.74,3.78.59,1.44,1.99,2.88,3.98,4.31,5.98.9,1.26.86,2.33-.14,3.51-1.2,1.41-1.57,2.99-.95,4.74.63,1.78,1.95,2.85,3.81,3.06.82.09,1.71-.11,2.5-.38,1.42-.48,2.46-.27,3.34.93,1.44,1.96,2.86,3.93,4.27,5.91,1.12,1.58.89,2.88-.7,4.03-10.2,7.37-20.4,14.74-30.6,22.11-5.25,3.8-10.51,7.59-15.76,11.39-1.59,1.15-2.95.94-4.1-.65-1.4-1.92-2.8-3.85-4.18-5.79-.92-1.29-.84-2.35.19-3.57,1.27-1.51,1.56-3.22.78-5.03-.76-1.76-2.4-2.76-4.35-2.75l-.07-.19h-.02Zm9.89,16.21c.23-.15.42-.26.6-.39,4.8-3.47,9.6-6.94,14.41-10.41,6.75-4.88,13.51-9.75,20.26-14.62.34-.25.64-.48.65-1.01.01-.52.9-1.22,1.38-1.07.67.21,1.04-.16,1.48-.47.64-.46,1.27-.92,1.91-1.38,2.13-1.54,4.26-3.08,6.44-4.66-1.42-1.98-2.83-3.89-4.19-5.84-.31-.44-.56-.51-1.05-.32-1.67.65-3.36.62-5.04,0-4.47-1.66-6.08-7.31-3.12-11.06.4-.51.43-.83.03-1.35-.77-.97-1.46-2-2.19-3.01-.63-.87-1.27-1.74-1.92-2.63-.16.1-.25.14-.33.2-2.84,2.04-5.67,4.08-8.5,6.14-.19.14-.32.43-.38.67-.14.55-.86,1.37-1.36,1.22-.93-.27-1.41.37-1.99.79-11.29,8.14-22.57,16.3-33.85,24.45-.24.17-.47.35-.72.55,1.56,2.16,3.07,4.25,4.57,6.32,4.04-1.6,7.13,0,8.72,1.99,2.2,2.73,2.09,5.65-.37,9.58,1.5,2.07,3.01,4.16,4.54,6.29l.02.02Z"/>
    <path class="cls-1" d="m482.49,158.29c-2.28-1.33-4.51-2.63-6.8-3.97-.9,1.54-1.78,3.04-2.66,4.54-.93,1.59-1.87,3.18-2.78,4.79-.13.23-.17.56-.13.81.15.82-.28,1.54-1.09,1.81-.25.08-.51.31-.65.54-3.39,5.78-6.77,11.57-10.15,17.36-1.03,1.77-2.07,3.54-3.11,5.3-.46.78-1.17,1.03-1.83.65-.65-.37-.78-1.09-.3-1.91,2.61-4.48,5.23-8.95,7.85-13.43,4.11-7.03,8.21-14.07,12.34-21.09.3-.51.66-1.05,1.13-1.39.81-.6,1.76-.63,2.65-.11,2.26,1.3,4.51,2.61,6.75,3.95,1.09.65,1.51,1.79,1.11,3.02-.44,1.35-.34,2.63.3,3.89.41.81.22,1.46-.47,1.81-.67.34-1.33.09-1.75-.7-.99-1.86-1.1-3.8-.41-5.87h0Z"/>
    <path class="cls-1" d="m446.4,204.52c1.11.65,2.23,1.27,3.32,1.96.36.23.81.57.89.94.09.39-.09,1.01-.38,1.25s-.96.32-1.3.15c-1.35-.68-2.68-1.42-3.93-2.27-1.7-1.17-1.26-3.17,0-4.38.42-.4,1.07-.41,1.44.03.28.32.39.87.4,1.32.01.31-.27.64-.44,1.01h0Z"/>
    <path class="cls-1" d="m476.23,168.17c-.05,1.36-1,1.91-1.97,1.36-.66-.37-1.31-.75-1.96-1.15-.69-.43-.76-.89-.29-1.66.43-.69.9-.83,1.58-.45.68.39,1.37.76,2.02,1.2.3.2.5.56.62.7h0Z"/>
    <path class="cls-1" d="m478.76,171.99c-.53.02-.97-.4-.98-.94-.01-.64.64-1.43,1.2-1.45.5-.02.99.44,1.01.94.02.57-.71,1.44-1.22,1.46h-.01Z"/>
    <path class="cls-1" d="m490.84,176.89c-.02.74-.58,1.06-1.09,1.23-.3.1-.85-.11-1.09-.37-.53-.56-.96-1.23-1.4-1.87-.36-.53-.22-1.01.27-1.39.46-.36,1-.81,1.52-.24.64.7,1.15,1.52,1.71,2.29.07.09.06.24.08.33v.02Z"/>
    <path class="cls-1" d="m492.24,179.19c.36.23.66.34.83.55.49.61.95,1.24,1.39,1.89.39.6.22,1.12-.46,1.59-.66.46-1.11.42-1.57-.18-.42-.54-.85-1.07-1.18-1.67-.18-.33-.34-.88-.19-1.15.23-.42.75-.68,1.18-1.03h0Z"/>
    <path class="cls-1" d="m497.17,189c-.35-.23-.65-.35-.82-.57-.49-.61-.95-1.24-1.39-1.9-.37-.56-.23-1.06.36-1.49.73-.54,1.15-.54,1.64.07.46.57.92,1.15,1.28,1.79.17.31.29.85.13,1.09-.26.41-.76.67-1.2,1.02h0Z"/>
    <path class="cls-1" d="m502.36,192.86c-.06.71-.54,1.04-1.06,1.2-.31.09-.85-.03-1.05-.27-.56-.64-1.03-1.36-1.49-2.08-.44-.69.09-1.04.55-1.42.47-.38.97-.45,1.34,0,.6.71,1.11,1.5,1.64,2.27.06.09.05.24.07.32v-.02Z"/>
  </g>
  <g>
    <path class="cls-1" d="m283.26,244.4c6.08,10.37,17.38,9.17,22.25-.19,2.57,1.1,5.15,2.21,7.67,3.3,0,.55.1.88-.01,1.11-3.44,7.03-3.76,14.52-3.5,22.16.21,6.29-.03,12.6.09,18.9.04,2.19-.4,3.17-2.9,3.12-7.77-.16-15.55-.11-23.33-.02-2.02.02-2.73-.61-2.8-2.66-.31-9.83-.54-19.68-1.29-29.48-.27-3.53-1.7-7.02-2.96-10.4-.78-2.1-.35-3.06,1.68-3.73,1.75-.58,3.42-1.41,5.1-2.11h0Zm11.37,35.82c4.9,0,7.35-2.46,7.34-7.39,0-4.93-2.41-7.35-7.21-7.27-4.98,0-7.47,2.43-7.47,7.29s2.45,7.36,7.34,7.37Z"/>
    <path class="cls-1" d="m266.92,308.03c-3.64,0-7.27-.02-10.91,0-2.11.01-3.06-.93-2.89-3.08.73-9.01,1.42-18.03,2.13-27.04.02-.29-.05-.74.11-.86,2.9-2.03,1.96-5.65,3.45-8.26,1.98-3.44,5.79-5.28,9.75-4.58,3.72.66,6.92,3.99,7.42,7.82.2,1.53-.12,3.11,1.81,3.95.5.22.64,1.56.7,2.4.71,8.72,1.32,17.44,2.08,26.16.23,2.63-.82,3.57-3.34,3.51-3.44-.09-6.88-.02-10.32-.02h.01Zm-.14-32.82c1.66,0,3.33-.09,4.99.02,1.93.13,2.33-.82,2.17-2.5-.34-3.61-3.49-6.61-7.05-6.6-3.6,0-6.66,2.86-7.14,6.53-.24,1.88.3,2.75,2.34,2.57,1.55-.14,3.13-.03,4.69-.03h0Zm7.46,16.45c0-4.91-2.46-7.37-7.39-7.38h-.29c-4.69,0-7.03,2.37-7.03,7.13,0,5.03,2.5,7.55,7.51,7.55s7.19-2.43,7.2-7.3Z"/>
    <path class="cls-1" d="m303.94,243.11c-1.82,4.84-5.24,7.28-9.44,7.31-4.23.03-7.7-2.33-9.59-7.03,6.37-1.04,12.51-.61,19.04-.28h-.01Z"/>
    <path class="cls-1" d="m315.43,248.88c.83,2.69,1.72,5.36,2.44,8.08.12.45-.33,1.39-.76,1.6-1.83.88-3.75,1.57-5.63,2.33-.28-.17-.56-.33-.85-.5,1.27-3.88,2.54-7.75,3.82-11.63.33.04.65.09.98.13h0Z"/>
    <path class="cls-1" d="m275.08,249.9c1.15,3.29,2.29,6.58,3.44,9.87-.22.3-.44.59-.66.89-1.83-.83-5.13-1.52-5.22-2.51-.26-2.72.83-5.57,1.39-8.37.35.04.7.07,1.06.11h-.01Z"/>
    <path class="cls-1" d="m311.32,264.85c-.21-2.64,1.29-3.67,6.84-4.89.78,2.5-.31,3.29-6.84,4.89Z"/>
    <path class="cls-1" d="m271.84,259.24c2.14,2.05,6.15,1,6.35,5.23-5.47-.93-7.04-2.08-6.35-5.23Z"/>
    <path class="cls-1" d="m300.02,266.93c-1.98,3.01-3.53,5.35-5.13,7.79-1.35-1.05-2.49-1.94-3.87-3.02-.68,1.14-1.29,2.16-1.9,3.18-.19-.03-.37-.06-.56-.09,0-2.1-.11-4.2.07-6.28.05-.57.99-1.47,1.56-1.5,3.02-.15,6.06-.07,9.83-.07h0Z"/>
    <path class="cls-1" d="m300.48,269.84v8.92h-11.31c.71-1.71,1.36-3.27,2.11-5.08,1.35,1.03,2.41,1.84,3.81,2.91,1.65-2.37,3.24-4.66,4.83-6.95.19.07.37.13.56.2h0Z"/>
    <path class="cls-1" d="m267.14,293.48c-1.43-1.17-2.55-2.08-3.84-3.13-.73,1.22-1.35,2.24-2.32,3.86v-8.4h11.19c-1.74,2.66-3.34,5.1-5.03,7.67Z"/>
    <path class="cls-1" d="m261.25,297.61c.87-2,1.51-3.48,2.27-5.23,1.33,1.03,2.38,1.84,3.78,2.92,1.69-2.4,3.34-4.74,4.98-7.07.2.04.39.07.59.11,0,2.69.07,5.38-.07,8.06-.02.43-1.02,1.14-1.59,1.16-3.12.11-6.24.05-9.96.05h0Z"/>
  </g>
  <g>
    <path class="cls-2" d="m590.4,470.27l2.06-2.45c3.05,3.31,7.16,6.53,14.14,6.53s11.97-4.48,11.97-11.28-5.1-11.84-17.83-11.84v-3.12c11.79,0,15.94-4.98,15.94-11.09,0-5.78-4.07-9.54-10.32-9.54-4.66,0-8.78,2.45-11.7,5.6l-2.13-2.42c3.52-3.44,7.94-6.27,13.89-6.27,7.89,0,13.94,4.54,13.94,12.38,0,6.68-4.16,10.72-9.74,12.62v.32c6.34,1.33,11.63,6.05,11.63,13.31,0,8.88-6.82,14.45-15.65,14.45-8.17,0-12.94-3.73-16.21-7.2h.01Z"/>
    <path class="cls-2" d="m633.12,473.39h12.03v-42.37h-9.17v-2.43c4.18-.69,7.42-1.84,9.82-3.23h2.88v48.03h11.14v3.12h-26.71v-3.12h0Z"/>
    <path class="cls-2" d="m667.92,439.31c0-10.54,4.32-16.48,11.28-16.48s11.28,5.94,11.28,16.48-4.32,16.64-11.28,16.64-11.28-5.95-11.28-16.64Zm19.46,0c0-8.91-3.22-13.86-8.18-13.86s-8.18,4.94-8.18,13.86,3.22,14.02,8.18,14.02,8.18-5.1,8.18-14.02Zm22.59-16.48h3.07l-29.42,54.64h-3.07l29.42-54.64h0Zm-6.59,38c0-10.54,4.32-16.48,11.28-16.48s11.28,5.94,11.28,16.48-4.32,16.64-11.28,16.64-11.28-5.95-11.28-16.64h0Zm19.46,0c0-8.91-3.22-13.86-8.18-13.86s-8.18,4.94-8.18,13.86,3.22,14.02,8.18,14.02,8.18-5.1,8.18-14.02Z"/>
  </g>
  <g>
    <path class="cls-7" d="m592.13,495.36h4.19c4.81,0,7.65,2.59,7.65,7.79s-2.84,7.91-7.51,7.91h-4.33v-15.7Zm4,13.44c3.16,0,4.97-1.79,4.97-5.65s-1.81-5.53-4.97-5.53h-1.22v11.18h1.22Z"/>
    <path class="cls-7" d="m607.13,495.36h5.29c3.26,0,5.78,1.15,5.78,4.66s-2.51,4.91-5.78,4.91h-2.51v6.13h-2.78v-15.7h0Zm5,7.33c2.15,0,3.32-.89,3.32-2.68s-1.17-2.43-3.32-2.43h-2.22v5.11h2.22Zm-.24,1.48l2.02-1.66,4.9,8.54h-3.13l-3.79-6.88h0Z"/>
    <path class="cls-7" d="m620.51,503.15c0-5.08,2.83-8.07,6.92-8.07s6.92,3.01,6.92,8.07-2.83,8.2-6.92,8.2-6.92-3.12-6.92-8.2Zm10.98,0c0-3.52-1.59-5.66-4.06-5.66s-4.06,2.13-4.06,5.66,1.59,5.78,4.06,5.78,4.06-2.26,4.06-5.78Z"/>
    <path class="cls-7" d="m637.51,495.36h2.78v15.7h-2.78v-15.7Z"/>
    <path class="cls-7" d="m647.45,497.71h-4.53v-2.34h11.85v2.34h-4.53v13.35h-2.78v-13.35h0Z"/>
    <path class="cls-7" d="m655.54,509.05l1.62-1.91c1.12,1.07,2.63,1.79,4.09,1.79,1.77,0,2.74-.8,2.74-2.03s-1.01-1.7-2.44-2.31l-2.15-.93c-1.55-.64-3.17-1.87-3.17-4.16,0-2.5,2.21-4.43,5.27-4.43,1.83,0,3.61.76,4.84,2l-1.43,1.77c-1-.85-2.06-1.35-3.41-1.35-1.49,0-2.46.7-2.46,1.84,0,1.23,1.2,1.69,2.5,2.22l2.12.89c1.87.78,3.17,1.96,3.17,4.23,0,2.54-2.11,4.67-5.64,4.67-2.12,0-4.17-.84-5.65-2.3h0Z"/>
    <path class="cls-7" d="m677.66,497.71h-4.53v-2.34h11.85v2.34h-4.53v13.35h-2.78v-13.35h0Z"/>
    <path class="cls-7" d="m685.51,495.36h2.95l2.21,7.89c.51,1.78.85,3.32,1.38,5.11h.1c.53-1.79.89-3.33,1.38-5.11l2.18-7.89h2.84l-4.86,15.7h-3.3l-4.88-15.7h0Z"/>
  </g>
  <g>
    <path class="cls-6" d="m591.4,101.86c16.75-17.09,25.17-26.58,25.17-35.47,0-6.36-3.42-11.33-11.14-11.33-4.66,0-8.8,2.83-11.92,6.67l-2.32-2.18c3.84-4.3,8.35-7.58,14.58-7.58,9.09,0,14.42,5.7,14.42,14.34,0,10.18-9.26,19.93-23.49,34.96,2.85-.18,5.81-.35,8.62-.35h17.41v3.17h-31.33v-2.22h0Z"/>
    <path class="cls-6" d="m629.72,101.86c16.75-17.09,25.17-26.58,25.17-35.47,0-6.36-3.42-11.33-11.14-11.33-4.66,0-8.8,2.83-11.92,6.67l-2.32-2.18c3.84-4.3,8.35-7.58,14.58-7.58,9.09,0,14.42,5.7,14.42,14.34,0,10.18-9.26,19.93-23.49,34.96,2.85-.18,5.81-.35,8.62-.35h17.41v3.17h-31.33v-2.22h0Z"/>
    <path class="cls-6" d="m667.92,66.88c0-10.54,4.32-16.48,11.28-16.48s11.28,5.94,11.28,16.48-4.32,16.64-11.28,16.64-11.28-5.95-11.28-16.64Zm19.46,0c0-8.91-3.22-13.86-8.18-13.86s-8.18,4.94-8.18,13.86,3.22,14.02,8.18,14.02,8.18-5.1,8.18-14.02Zm22.59-16.48h3.07l-29.42,54.64h-3.07s29.42-54.64,29.42-54.64Zm-6.59,38c0-10.54,4.32-16.48,11.28-16.48s11.28,5.94,11.28,16.48-4.32,16.64-11.28,16.64-11.28-5.95-11.28-16.64Zm19.46,0c0-8.91-3.22-13.86-8.18-13.86s-8.18,4.94-8.18,13.86,3.22,14.02,8.18,14.02,8.18-5.1,8.18-14.02Z"/>
  </g>
  <g>
    <path class="cls-7" d="m592.13,122.94h5.02c3.23,0,5.6.99,5.6,3.87,0,1.48-.81,2.92-2.18,3.4v.1c1.74.39,3.01,1.6,3.01,3.73,0,3.14-2.57,4.61-6.03,4.61h-5.42v-15.7h0Zm4.77,6.48c2.19,0,3.12-.85,3.12-2.22,0-1.52-1.03-2.09-3.06-2.09h-2.04v4.31h1.99-.01Zm.37,7.05c2.3,0,3.59-.83,3.59-2.59,0-1.65-1.25-2.37-3.59-2.37h-2.35v4.96h2.35Z"/>
    <path class="cls-7" d="m606.45,122.94h2.78v15.7h-2.78v-15.7Z"/>
    <path class="cls-7" d="m613.22,122.94h2.78v13.35h6.52v2.34h-9.3v-15.7h0Z"/>
    <path class="cls-7" d="m625.27,122.94h2.78v13.35h6.52v2.34h-9.3v-15.7h0Z"/>
    <path class="cls-7" d="m637.32,122.94h9.45v2.34h-6.66v4.02h5.65v2.34h-5.65v4.65h6.9v2.34h-9.69v-15.7h0Z"/>
    <path class="cls-7" d="m653.4,125.28h-4.53v-2.34h11.85v2.34h-4.53v13.35h-2.78v-13.35h0Z"/>
    <path class="cls-7" d="m663.33,122.94h9.45v2.34h-6.66v4.02h5.65v2.34h-5.65v4.65h6.9v2.34h-9.69v-15.7h0Z"/>
    <path class="cls-7" d="m676.24,122.94h5.29c3.26,0,5.78,1.15,5.78,4.66s-2.51,4.91-5.78,4.91h-2.51v6.13h-2.78v-15.7h0Zm5,7.33c2.15,0,3.32-.89,3.32-2.68s-1.17-2.43-3.32-2.43h-2.22v5.11h2.22Zm-.24,1.48l2.02-1.66,4.9,8.54h-3.13l-3.79-6.88h0Z"/>
    <path class="cls-7" d="m690.45,122.94h2.78v15.7h-2.78v-15.7Z"/>
    <path class="cls-7" d="m697.22,122.94h9.45v2.34h-6.66v4.02h5.65v2.34h-5.65v4.65h6.9v2.34h-9.69v-15.7h0Z"/>
  </g>
  <g>
    <path class="cls-7" d="m369.97,240.87h-4.53v-2.34h11.85v2.34h-4.53v13.35h-2.78v-13.35h-.01Z"/>
    <path class="cls-7" d="m378.45,246.31c0-5.08,2.83-8.07,6.92-8.07s6.92,3.01,6.92,8.07-2.83,8.2-6.92,8.2-6.92-3.12-6.92-8.2Zm10.98,0c0-3.52-1.59-5.65-4.06-5.65s-4.06,2.13-4.06,5.65,1.59,5.78,4.06,5.78,4.06-2.26,4.06-5.78Z"/>
    <path class="cls-7" d="m398,240.87h-4.53v-2.34h11.85v2.34h-4.53v13.35h-2.78v-13.35h-.01Z"/>
    <path class="cls-7" d="m410.05,238.53h3.26l5.12,15.7h-2.95l-2.39-8.35c-.5-1.66-.96-3.45-1.42-5.17h-.1c-.43,1.74-.89,3.51-1.39,5.17l-2.41,8.35h-2.84l5.12-15.7h0Zm-2.09,9.26h7.39v2.18h-7.39v-2.18Z"/>
    <path class="cls-7" d="m420.22,238.53h2.78v13.35h6.52v2.34h-9.3v-15.7h0Z"/>
    <path class="cls-7" d="m352.69,267.33h4.19c4.81,0,7.65,2.59,7.65,7.79s-2.84,7.91-7.51,7.91h-4.33v-15.7Zm4,13.44c3.16,0,4.97-1.79,4.97-5.65s-1.81-5.53-4.97-5.53h-1.22v11.18h1.22Z"/>
    <path class="cls-7" d="m367.29,272.41c1.33-.75,2-1.63,2-3.03l-.19-1.83,1.08,1.42c-.33.29-.68.47-1.11.47-.85,0-1.57-.56-1.57-1.49,0-1.02.65-1.65,1.57-1.65,1.22,0,1.89.97,1.89,2.66,0,2.09-1.01,3.66-3,4.7l-.67-1.24h0Z"/>
    <path class="cls-7" d="m374.29,267.33h9.45v2.34h-6.66v4.02h5.65v2.34h-5.65v4.65h6.9v2.34h-9.69v-15.7h0Z"/>
    <path class="cls-7" d="m387.12,276.14v-8.81h2.78v9.02c0,3.42,1.28,4.54,3.18,4.54s3.25-1.12,3.25-4.54v-9.02h2.68v8.81c0,5.16-2.28,7.17-5.92,7.17s-5.96-2.02-5.96-7.17h0Z"/>
    <path class="cls-7" d="m402.92,267.33h5.29c3.26,0,5.78,1.15,5.78,4.66s-2.51,4.91-5.78,4.91h-2.51v6.13h-2.78v-15.7Zm5,7.33c2.15,0,3.32-.89,3.32-2.68s-1.17-2.43-3.32-2.43h-2.22v5.11h2.22Zm-.24,1.48l2.02-1.66,4.9,8.54h-3.13l-3.79-6.88h0Z"/>
    <path class="cls-7" d="m416.3,275.12c0-5.08,2.83-8.07,6.92-8.07s6.92,3.01,6.92,8.07-2.83,8.2-6.92,8.2-6.92-3.12-6.92-8.2Zm10.98,0c0-3.52-1.59-5.65-4.06-5.65s-4.06,2.13-4.06,5.65,1.59,5.78,4.06,5.78,4.06-2.26,4.06-5.78Z"/>
    <path class="cls-7" d="m432.23,281.02l1.62-1.91c1.12,1.07,2.63,1.79,4.09,1.79,1.77,0,2.74-.8,2.74-2.03s-1.01-1.7-2.44-2.31l-2.15-.93c-1.55-.64-3.17-1.87-3.17-4.16,0-2.5,2.21-4.43,5.27-4.43,1.83,0,3.61.76,4.84,2l-1.43,1.77c-1-.85-2.06-1.35-3.41-1.35-1.49,0-2.46.7-2.46,1.84,0,1.23,1.2,1.69,2.5,2.22l2.12.89c1.87.78,3.17,1.96,3.17,4.23,0,2.54-2.11,4.67-5.64,4.67-2.12,0-4.17-.84-5.65-2.3h0Z"/>
  </g>
  <g>
    <path class="cls-7" d="m398.67,293.91h3.15l2.77,7.67c.35,1,.66,2.05,1.01,3.08h.1c.35-1.03.64-2.08.99-3.08l2.72-7.67h3.15v15.7h-2.55v-7.18c0-1.45.22-3.54.36-4.99h-.1l-1.27,3.65-2.58,7.05h-1.65l-2.59-7.05-1.25-3.65h-.1c.13,1.45.36,3.54.36,4.99v7.18h-2.51v-15.7h0Z"/>
    <path class="cls-7" d="m416.55,293.91h4.19c4.81,0,7.65,2.59,7.65,7.79s-2.84,7.91-7.51,7.91h-4.33v-15.7Zm4,13.44c3.16,0,4.97-1.79,4.97-5.65s-1.81-5.53-4.97-5.53h-1.22v11.18h1.22Z"/>
    <path class="cls-7" d="m430.48,307.6l1.62-1.91c1.12,1.07,2.63,1.79,4.09,1.79,1.77,0,2.74-.8,2.74-2.03s-1.01-1.7-2.44-2.31l-2.15-.93c-1.55-.64-3.17-1.87-3.17-4.16,0-2.5,2.21-4.43,5.27-4.43,1.83,0,3.61.76,4.84,2l-1.43,1.77c-1-.85-2.06-1.35-3.41-1.35-1.49,0-2.46.7-2.46,1.84,0,1.23,1.2,1.69,2.5,2.22l2.12.89c1.87.78,3.17,1.96,3.17,4.23,0,2.54-2.11,4.67-5.64,4.67-2.12,0-4.17-.84-5.65-2.3h0Z"/>
  </g>
  <g>
    <path class="cls-3" d="m23.8,234.71c0-2.36.18-6.47.34-8.83h-.32c-1.28,2.18-2.72,4.06-4.16,6.38l-15.01,21.17h30.19v3.06H.33v-2.11l23.76-33.79h3.15v51.15h-3.44v-37.03h0Z"/>
    <path class="cls-3" d="m67.8,223.75h-26.94v-3.17h31.42v2.14c-12.26,16.2-15.26,29.03-16.08,49.01h-3.82c.82-20.61,5.12-33.58,15.42-47.99h0Z"/>
    <path class="cls-3" d="m78.86,234.53c0-10.54,4.32-16.48,11.28-16.48s11.28,5.94,11.28,16.48-4.32,16.64-11.28,16.64-11.28-5.95-11.28-16.64Zm19.46,0c0-8.91-3.22-13.86-8.18-13.86s-8.18,4.94-8.18,13.86,3.22,14.02,8.18,14.02,8.18-5.1,8.18-14.02Zm22.59-16.48h3.07l-29.42,54.64h-3.07l29.42-54.64Zm-6.59,38c0-10.54,4.32-16.48,11.28-16.48s11.28,5.94,11.28,16.48-4.32,16.64-11.28,16.64-11.28-5.95-11.28-16.64Zm19.46,0c0-8.91-3.22-13.86-8.18-13.86s-8.18,4.94-8.18,13.86,3.22,14.02,8.18,14.02,8.18-5.1,8.18-14.02Z"/>
  </g>
  <g>
    <path class="cls-7" d="m6.66,302.11l1.62-1.91c1.12,1.07,2.63,1.79,4.09,1.79,1.77,0,2.74-.8,2.74-2.03s-1.01-1.7-2.44-2.31l-2.15-.93c-1.55-.64-3.17-1.87-3.17-4.16,0-2.5,2.21-4.43,5.27-4.43,1.83,0,3.61.76,4.84,2l-1.43,1.77c-1-.85-2.06-1.35-3.41-1.35-1.49,0-2.46.7-2.46,1.84,0,1.23,1.2,1.69,2.5,2.22l2.12.89c1.87.78,3.17,1.96,3.17,4.23,0,2.54-2.11,4.67-5.64,4.67-2.12,0-4.17-.83-5.65-2.3h0Z"/>
    <path class="cls-7" d="m20.82,288.42h4.94c3.49,0,6.07,1.21,6.07,4.84s-2.59,5.09-5.97,5.09h-2.26v5.77h-2.78v-15.7h0Zm4.81,7.7c2.34,0,3.46-.93,3.46-2.86s-1.22-2.61-3.55-2.61h-1.93v5.47h2.03-.01Z"/>
    <path class="cls-7" d="m33.96,296.21c0-5.08,2.83-8.07,6.92-8.07s6.92,3.01,6.92,8.07-2.83,8.2-6.92,8.2-6.92-3.12-6.92-8.2Zm10.98,0c0-3.52-1.59-5.65-4.06-5.65s-4.06,2.13-4.06,5.65,1.59,5.78,4.06,5.78,4.06-2.26,4.06-5.78Z"/>
    <path class="cls-7" d="m50.96,288.42h2.86l4.88,8.82,1.62,3.35h.1c-.13-1.62-.36-3.61-.36-5.36v-6.82h2.65v15.7h-2.86l-4.88-8.84-1.62-3.34h-.1c.13,1.66.35,3.55.35,5.3v6.87h-2.65v-15.7.02Z"/>
    <path class="cls-7" d="m65.63,302.11l1.62-1.91c1.12,1.07,2.63,1.79,4.09,1.79,1.77,0,2.74-.8,2.74-2.03s-1.01-1.7-2.44-2.31l-2.15-.93c-1.55-.64-3.17-1.87-3.17-4.16,0-2.5,2.21-4.43,5.27-4.43,1.83,0,3.61.76,4.84,2l-1.43,1.77c-1-.85-2.06-1.35-3.41-1.35-1.49,0-2.46.7-2.46,1.84,0,1.23,1.2,1.69,2.5,2.22l2.12.89c1.87.78,3.17,1.96,3.17,4.23,0,2.54-2.11,4.67-5.64,4.67-2.12,0-4.17-.83-5.65-2.3h0Z"/>
    <path class="cls-7" d="m78.96,296.21c0-5.08,2.83-8.07,6.92-8.07s6.92,3.01,6.92,8.07-2.83,8.2-6.92,8.2-6.92-3.12-6.92-8.2Zm10.98,0c0-3.52-1.59-5.65-4.06-5.65s-4.06,2.13-4.06,5.65,1.59,5.78,4.06,5.78,4.06-2.26,4.06-5.78Z"/>
    <path class="cls-7" d="m95.96,288.42h5.29c3.26,0,5.78,1.15,5.78,4.66s-2.51,4.91-5.78,4.91h-2.51v6.13h-2.78v-15.7Zm5,7.33c2.15,0,3.32-.89,3.32-2.68s-1.17-2.43-3.32-2.43h-2.22v5.11h2.22Zm-.24,1.48l2.02-1.66,4.9,8.54h-3.13l-3.79-6.88Z"/>
    <path class="cls-7" d="m110.17,288.42h2.78v15.7h-2.78v-15.7Z"/>
    <path class="cls-7" d="m116.94,288.42h2.86l4.88,8.82,1.62,3.35h.1c-.13-1.62-.36-3.61-.36-5.36v-6.82h2.65v15.7h-2.86l-4.88-8.84-1.62-3.34h-.1c.13,1.66.35,3.55.35,5.3v6.87h-2.65v-15.7.02Z"/>
    <path class="cls-7" d="m131.85,296.32c0-5.14,3.25-8.19,7.43-8.19,2.23,0,3.75.98,4.74,1.99l-1.49,1.8c-.79-.77-1.71-1.36-3.17-1.36-2.78,0-4.66,2.16-4.66,5.68s1.66,5.75,4.81,5.75c.87,0,1.74-.25,2.24-.69v-3.39h-2.96v-2.28h5.45v6.92c-1.05,1.06-2.86,1.86-5.01,1.86-4.23,0-7.39-2.89-7.39-8.08h.01Z"/>
    <path class="cls-7" d="m152.55,288.42h9.45v2.34h-6.66v4.02h5.65v2.34h-5.65v4.65h6.9v2.34h-9.69v-15.7h0Z"/>
    <path class="cls-7" d="m168.63,290.77h-4.53v-2.34h11.85v2.34h-4.53v13.35h-2.78v-13.35h-.01Z"/>
    <path class="cls-7" d="m7.74,317.22h3.15l2.77,7.67c.35,1,.66,2.05,1.01,3.08h.1c.35-1.03.64-2.08.99-3.08l2.72-7.67h3.15v15.7h-2.55v-7.18c0-1.45.22-3.54.36-4.99h-.1l-1.27,3.65-2.58,7.05h-1.65l-2.59-7.05-1.25-3.65h-.1c.13,1.45.36,3.54.36,4.99v7.18h-2.51v-15.7h-.01Z"/>
    <path class="cls-7" d="m25.62,317.22h9.45v2.34h-6.66v4.02h5.65v2.34h-5.65v4.65h6.9v2.34h-9.69v-15.7h0Z"/>
    <path class="cls-7" d="m38.53,317.22h5.29c3.26,0,5.78,1.15,5.78,4.66s-2.51,4.91-5.78,4.91h-2.51v6.13h-2.78s0-15.7,0-15.7Zm5,7.33c2.15,0,3.32-.89,3.32-2.68s-1.17-2.43-3.32-2.43h-2.22v5.11h2.22Zm-.24,1.48l2.02-1.66,4.9,8.54h-3.13l-3.79-6.88Z"/>
    <path class="cls-7" d="m51.91,325.13c0-5.14,3.22-8.19,7.19-8.19,1.97,0,3.53.94,4.52,1.99l-1.49,1.79c-.81-.81-1.75-1.36-2.98-1.36-2.55,0-4.39,2.16-4.39,5.68s1.69,5.75,4.32,5.75c1.39,0,2.47-.64,3.35-1.61l1.49,1.75c-1.27,1.48-2.91,2.29-4.94,2.29-3.95,0-7.08-2.89-7.08-8.08h.01Z"/>
    <path class="cls-7" d="m66.56,317.22h2.78v6.31h6.35v-6.31h2.79v15.7h-2.79v-6.96h-6.35v6.96h-2.78v-15.7Z"/>
    <path class="cls-7" d="m85.55,317.22h3.26l5.12,15.7h-2.95l-2.39-8.35c-.5-1.66-.96-3.45-1.42-5.17h-.1c-.43,1.74-.89,3.51-1.39,5.17l-2.41,8.35h-2.84l5.12-15.7h0Zm-2.09,9.26h7.39v2.18h-7.39v-2.18Z"/>
    <path class="cls-7" d="m95.72,317.22h2.86l4.88,8.82,1.62,3.35h.1c-.13-1.62-.36-3.61-.36-5.36v-6.82h2.65v15.7h-2.86l-4.88-8.84-1.62-3.34h-.1c.13,1.66.35,3.55.35,5.3v6.87h-2.65v-15.7.02Z"/>
    <path class="cls-7" d="m111.47,317.22h4.19c4.81,0,7.65,2.59,7.65,7.79s-2.84,7.91-7.51,7.91h-4.33v-15.7Zm4,13.44c3.16,0,4.97-1.79,4.97-5.65s-1.81-5.53-4.97-5.53h-1.22v11.18h1.22Z"/>
    <path class="cls-7" d="m129.3,317.22h3.26l5.12,15.7h-2.95l-2.39-8.35c-.5-1.66-.96-3.45-1.42-5.17h-.1c-.43,1.74-.89,3.51-1.39,5.17l-2.41,8.35h-2.84l5.12-15.7h0Zm-2.09,9.26h7.39v2.18h-7.39v-2.18Z"/>
    <path class="cls-7" d="m138.54,330.91l1.62-1.91c1.12,1.07,2.63,1.79,4.09,1.79,1.77,0,2.74-.8,2.74-2.03s-1.01-1.7-2.44-2.31l-2.15-.93c-1.55-.64-3.17-1.87-3.17-4.16,0-2.5,2.21-4.43,5.27-4.43,1.83,0,3.61.76,4.84,2l-1.43,1.77c-1-.85-2.06-1.35-3.41-1.35-1.49,0-2.46.7-2.46,1.84,0,1.23,1.2,1.69,2.5,2.22l2.12.89c1.87.78,3.17,1.96,3.17,4.23,0,2.54-2.11,4.67-5.64,4.67-2.12,0-4.17-.84-5.65-2.3h0Z"/>
    <path class="cls-7" d="m152.7,317.22h2.78v15.7h-2.78v-15.7Z"/>
    <path class="cls-7" d="m159.46,317.22h2.86l4.88,8.82,1.62,3.35h.1c-.13-1.62-.36-3.61-.36-5.36v-6.82h2.65v15.7h-2.86l-4.88-8.84-1.62-3.34h-.1c.13,1.66.35,3.55.35,5.3v6.87h-2.65v-15.7.02Z"/>
    <path class="cls-7" d="m174.38,325.13c0-5.14,3.25-8.19,7.43-8.19,2.23,0,3.75.98,4.74,1.99l-1.49,1.79c-.79-.77-1.71-1.36-3.17-1.36-2.78,0-4.66,2.16-4.66,5.68s1.66,5.75,4.81,5.75c.87,0,1.74-.25,2.24-.69v-3.39h-2.96v-2.29h5.45v6.92c-1.05,1.06-2.86,1.86-5.01,1.86-4.23,0-7.39-2.89-7.39-8.08h.01Z"/>
  </g>
  <g>
    <path class="cls-7" d="m17.08,495.15h9.45v2.34h-6.66v4.02h5.65v2.34h-5.65v4.65h6.9v2.34h-9.69v-15.7h0Z"/>
    <path class="cls-7" d="m29.75,499.06h2.27l.21,1.59h.08c1.06-1.03,2.26-1.88,3.87-1.88,2.53,0,3.63,1.71,3.63,4.69v7.39h-2.76v-7.04c0-1.94-.56-2.67-1.83-2.67-1.04,0-1.72.51-2.69,1.47v8.24h-2.77v-11.79h-.01Z"/>
    <path class="cls-7" d="m47.15,509.24c4.23-4.12,6.9-6.8,6.9-9.13,0-1.61-.88-2.63-2.52-2.63-1.18,0-2.16.78-2.98,1.69l-1.54-1.52c1.39-1.51,2.79-2.37,4.88-2.37,2.92,0,4.83,1.85,4.83,4.69s-2.52,5.51-5.56,8.69c.81-.08,1.81-.15,2.56-.15h3.74v2.34h-10.31v-1.6h0Z"/>
    <path class="cls-7" d="m59.51,503.15c0-5.16,2.02-7.86,5.18-7.86s5.18,2.72,5.18,7.86-2.02,7.99-5.18,7.99-5.18-2.83-5.18-7.99Zm7.73,0c0-4.32-1.07-5.69-2.54-5.69s-2.54,1.37-2.54,5.69,1.07,5.82,2.54,5.82,2.54-1.5,2.54-5.82Z"/>
    <path class="cls-7" d="m72.63,508.59h3.42v-10.02h-2.82v-1.74c1.52-.28,2.56-.67,3.52-1.26h2.06v13.02h3v2.26h-9.19v-2.26h.01Z"/>
    <path class="cls-7" d="m83.73,509.01l1.29-1.77c.91.87,2.03,1.63,3.57,1.63,1.71,0,2.95-1.08,2.95-2.93s-1.13-2.85-2.81-2.85c-.97,0-1.53.26-2.44.85l-1.32-.84.46-7.54h8.16v2.34h-5.76l-.33,3.69c.64-.32,1.23-.49,2.02-.49,2.62,0,4.8,1.49,4.8,4.76s-2.56,5.26-5.38,5.26c-2.48,0-4.08-.99-5.21-2.12h0Z"/>
  </g>
  <g>
    <path class="cls-5" d="m142.7,31.56h8.16l12.79,39.24h-7.37l-5.98-20.88c-1.25-4.15-2.4-8.63-3.55-12.94h-.24c-1.08,4.34-2.23,8.78-3.48,12.94l-6.02,20.88h-7.1l12.79-39.24h0Zm-5.23,23.15h18.48v5.46h-18.48v-5.46Z"/>
    <path class="cls-5" d="m168.14,31.56h6.96v33.38h16.3v5.86h-23.25V31.56h-.01Z"/>
    <path class="cls-5" d="m198.26,31.56h6.96v33.38h16.3v5.86h-23.25V31.56h-.01Z"/>
    <path class="cls-5" d="m228.38,31.56h23.61v5.86h-16.66v10.06h14.11v5.86h-14.11v11.62h17.26v5.86h-24.21V31.56h0Z"/>
    <path class="cls-5" d="m260.66,31.56h7.87l6.94,19.18c.86,2.5,1.66,5.14,2.52,7.7h.24c.86-2.57,1.61-5.21,2.47-7.7l6.79-19.18h7.87v39.24h-6.38v-17.95c0-3.62.55-8.84.89-12.48h-.24l-3.17,9.12-6.46,17.63h-4.13l-6.48-17.63-3.12-9.12h-.24c.34,3.64.89,8.86.89,12.48v17.95h-6.26V31.56Z"/>
    <path class="cls-5" d="m313.04,31.56h8.16l12.79,39.24h-7.37l-5.98-20.88c-1.25-4.15-2.4-8.63-3.55-12.94h-.24c-1.08,4.34-2.23,8.78-3.48,12.94l-6.02,20.88h-7.1l12.79-39.24h0Zm-5.23,23.15h18.48v5.46h-18.48v-5.46Z"/>
    <path class="cls-5" d="m336.17,51.31c0-12.84,8.14-20.47,18.58-20.47,5.57,0,9.38,2.45,11.86,4.97l-3.72,4.49c-1.97-1.92-4.27-3.41-7.92-3.41-6.96,0-11.64,5.4-11.64,14.21s4.15,14.38,12.02,14.38c2.18,0,4.34-.62,5.59-1.73v-8.47h-7.39v-5.71h13.63v17.3c-2.62,2.64-7.15,4.66-12.53,4.66-10.58,0-18.48-7.22-18.48-20.21h0Z"/>
    <path class="cls-5" d="m375.92,31.56h7.15l12.19,22.05,4.06,8.38h.24c-.34-4.06-.89-9.02-.89-13.39v-17.04h6.62v39.24h-7.15l-12.19-22.09-4.06-8.34h-.24c.34,4.15.89,8.88.89,13.25v17.18h-6.62V31.56Z"/>
    <path class="cls-5" d="m415.28,31.56h23.61v5.86h-16.66v10.06h14.11v5.86h-14.11v11.62h17.26v5.86h-24.21V31.56Z"/>
  </g>
  <g>
    <path class="cls-5" d="m61.18,97.91c-20.13,0-40.25,0-60.38.02-.66,0-.81-.18-.8-.82C.02,65.02.01,32.92.02.83.02-.11-.1,0,.85,0h120.7c.99,0,.85-.13.85.86v96.22c0,.94.13.81-.83.81h-60.39Z"/>
    <path class="cls-4" d="m32.8,67.77c-.84-1.95-1.62-3.85-2.22-5.82-.1-.32-.23-.63-.28-.96-.1-.63-.26-1.15-1.06-1.14-.39,0-.4-.38-.48-.64-.69-2.14-1.17-4.33-1.58-6.54-.62-3.36-1.02-6.75-.82-10.17.02-.3.07-.61.1-.92-.96.27-.99.27-.95-.79.1-3.23.65-6.41,1.29-9.57.47-2.34,1.02-4.66,1.9-6.9.2-.52.48-.86,1.04-1.04.73-.23,1.42-.56,2.13-.96-1.01-.08-2.02-.15-3.03-.23-1.49-.11-2.99-.21-4.48-.36-.45-.04-.77.07-1.11.37-2.64,2.29-5.28,4.58-7.95,6.83-.6.51-1.02,1.09-1.2,1.83-.15.62-.53,1.03-1,1.43-1.18.99-2.48,1.66-4.02,1.82-.44.05-.88.03-1.3-.1-.28-.09-.55-.24-.62-.56-.08-.34.23-.46.44-.61.62-.46,1.29-.85,1.83-1.4.13-.13.24-.28.38-.45-.25-.12-.38.06-.52.12-.6.25-1.18.51-1.84.55-.32.02-.52-.08-.59-.41s.03-.57.36-.7c.29-.11.57-.24.87-.35.88-.32,1.6-.84,2.16-1.62.55-.77,1.27-1.32,2.25-1.41.32-.03.41-.26.55-.44,2.55-3.26,5.12-6.51,7.87-9.61.74-.83,1.56-1.3,2.66-1.19.45.05.5-.23.52-.5.04-.49.32-.59.75-.63,3.84-.34,7.68-.57,11.53-.26,1.2.1,2.4.24,3.56.58.37.11.51.08.51-.36,0-.94.14-1.86.45-2.76,1-2.88,3.54-4.46,6.55-3.93,2.12.37,3.89,1.44,5.17,3.21.71.98.98,2.02.42,3.21-.51,1.08-.52,2.26-.35,3.43.13.83.23,1.62-.74,2.07-.2.09-.33.37-.46.57-.41.63-.71,1.31-1.01,2-.34.77-.94,1.13-1.81,1.06-.72-.06-1.58-.4-2.12-.02-.5.35-.65,1.21-.94,1.86-1.56,3.5-2.92,7.06-3.67,10.83-.04.18-.04.37-.1.55-.1.31.02.39.32.43,2.31.28,4.62.57,6.93.88,2.43.32,4.86.68,7.29,1.01.35.05.44.25.49.53.07.39.26.55.69.62,2.97.46,5.86,1.18,8.6,2.43.25.12.51.16.78.18,1.4.1,2.84-.06,4.2.46.07.03.2.03.23,0,.43-.51.88-.16,1.3-.02,3.1,1.02,6.03,2.46,9.04,3.71,5.14,2.15,10.51,3.23,16.07,3.33.67,0,1.33,0,1.99.12.46.08.8.31,1.03.72.21.37.16.66-.18.92-.22.17-.46.27-.51.68-.04.32-.55.58-.97.41-.36-.15-.5-.1-.59.28-.09.38-.7.7-1.01.49-.24-.17-.39-.05-.56.03-1.43.66-2.87,1.32-4.3,1.98-.2.09-.37.14-.35.47.02.36-.71.66-1.03.45-.4-.27-.56-.14-.63.29-.08.45-.73.76-1.07.46-.18-.16-.28-.08-.43-.05-1.23.27-2.01-.26-2.23-1.5-.09-.49-.18-.98-.23-1.48-.06-.56-.33-.81-.89-.93-3.37-.69-6.78-.67-10.2-.56-1.65.05-3.28-.03-4.9-.38-.84-.18-1.57-.55-2.25-1.02-1.01-.71-2.11-.99-3.34-1-3.02-.03-6.03-.12-9.05-.21-.37,0-.61.04-.64.45-.03.42-.34.38-.64.38-5.02-.03-10.03-.06-15.05-.09-.2,0-.41,0-.65.1.64.32,1.27.65,1.91.95.28.13.4.29.44.6.22,2.15.46,4.3.71,6.45.05.38-.11.48-.42.51-.35.03-.41.21-.38.55.31,2.88.42,5.77.5,8.66.04,1.73-.64,3-2.09,3.91-.92.57-1.85,1.11-2.81,1.61-.23.12-.44.2-.26.54.18.34-.19.36-.36.44-2.63,1.24-5.35,2.25-8.09,3.24-3.41,1.24-6.86,2.4-10.12,4.01-2.57,1.27-4.96,2.8-6.73,5.14-.35.46-.65.96-.94,1.47-.31.55-.78.66-1.33.51-.52-.15-.88-.47-.88-1.06v-.94c0-.22.01-.39-.22-.58-.27-.22-.27-.7-.07-.92.51-.55.65-1.08.36-1.8-.1-.25.07-.61.31-.84,1.12-1.08,2-2.36,2.89-3.63.11-.16.08-.31.02-.51-.11-.41-.02-.82.43-1.03.32-.16.43-.43.37-.75-.11-.56.09-.89.66-1.04.04-.01.09,0,.12-.03.97-.88,1.88-.47,2.85.04,1.83.95,3.49.69,5.06-.71,2.11-1.89,4.12-3.89,6.36-5.62,1.6-1.24,3.25-2.4,5.39-2.72l.02.02Z"/>
    <path class="cls-4" d="m108.85,34.8c3.85.11,6.86,3.18,6.76,6.88-.1,3.81-3.21,6.81-6.94,6.69-3.85-.12-6.75-3.19-6.64-7.03.1-3.65,3.22-6.64,6.82-6.54Z"/>
  </g>
  <g>
    <path class="cls-7" d="m355.6,300.08c0-.89.08-2.29.12-3.18h-.1c-.38.8-.82,1.56-1.25,2.37l-2.77,4.26h8.51v2.14h-11.24v-1.88l6.05-9.47h3.27v15.27h-2.59v-9.52Z"/>
    <path class="cls-7" d="m361.86,312.46c1.57-.6,2.45-1.7,2.43-2.98l-.13-2.07,1.06,1.71c-.31.31-.71.43-1.14.43-.94,0-1.79-.6-1.79-1.7,0-1.04.84-1.7,1.84-1.7,1.31,0,2.06,1.07,2.06,2.84,0,2.35-1.36,4.17-3.73,4.99l-.6-1.53Z"/>
    <path class="cls-7" d="m368.31,301.9c0-5.16,2.02-7.86,5.18-7.86s5.18,2.72,5.18,7.86-2.02,7.99-5.18,7.99-5.18-2.83-5.18-7.99Zm7.73,0c0-4.32-1.07-5.69-2.54-5.69s-2.54,1.37-2.54,5.69,1.07,5.82,2.54,5.82,2.54-1.5,2.54-5.82Z"/>
    <path class="cls-7" d="m380.57,308c4.23-4.12,6.9-6.8,6.9-9.13,0-1.61-.88-2.63-2.52-2.63-1.18,0-2.16.78-2.98,1.69l-1.54-1.52c1.39-1.51,2.79-2.37,4.88-2.37,2.92,0,4.83,1.85,4.83,4.68s-2.51,5.51-5.56,8.69c.81-.08,1.81-.15,2.56-.15h3.73v2.34h-10.31v-1.6Z"/>
  </g>
</svg>